<svg width="354" height="85" viewBox="0 0 354 85" fill="none" xmlns="http://www.w3.org/2000/svg">
<g clip-path="url(#clip0_2_4)">
<path d="M231 14L243 7.0718L243 20.9282L231 14Z" fill="url(#paint0_linear_2_4)" fill-opacity="0.5"/>
<path d="M231 56L243 49.0718L243 62.9282L231 56Z" fill="url(#paint1_linear_2_4)" fill-opacity="0.5"/>
<path d="M219 21L231 14.0718L231 27.9282L219 21Z" fill="url(#paint2_linear_2_4)" fill-opacity="0.5"/>
<path d="M219 63L231 56.0718L231 69.9282L219 63Z" fill="url(#paint3_linear_2_4)" fill-opacity="0.5"/>
<path d="M231 28L243 21.0718L243 34.9282L231 28Z" fill="url(#paint4_linear_2_4)" fill-opacity="0.5"/>
<path d="M231 70L243 63.0718L243 76.9282L231 70Z" fill="url(#paint5_linear_2_4)" fill-opacity="0.5"/>
<path d="M219 35L231 28.0718L231 41.9282L219 35Z" fill="url(#paint6_linear_2_4)" fill-opacity="0.5"/>
<path d="M219 77L231 70.0718L231 83.9282L219 77Z" fill="url(#paint7_linear_2_4)" fill-opacity="0.5"/>
<path d="M219 7L231 0.0717959L231 13.9282L219 7Z" fill="url(#paint8_linear_2_4)" fill-opacity="0.5"/>
<path d="M231 42L243 35.0718L243 48.9282L231 42Z" fill="url(#paint9_linear_2_4)" fill-opacity="0.5"/>
<path d="M219 49L231 42.0718L231 55.9282L219 49Z" fill="url(#paint10_linear_2_4)" fill-opacity="0.5"/>
<path d="M323 14L335 7.0718L335 20.9282L323 14Z" fill="url(#paint11_linear_2_4)" fill-opacity="0.5"/>
<path d="M323 56L335 49.0718L335 62.9282L323 56Z" fill="url(#paint12_linear_2_4)" fill-opacity="0.5"/>
<path d="M311 21L323 14.0718L323 27.9282L311 21Z" fill="url(#paint13_linear_2_4)" fill-opacity="0.5"/>
<path d="M311 63L323 56.0718L323 69.9282L311 63Z" fill="url(#paint14_linear_2_4)" fill-opacity="0.5"/>
<path d="M323 28L335 21.0718L335 34.9282L323 28Z" fill="url(#paint15_linear_2_4)" fill-opacity="0.5"/>
<path d="M323 70L335 63.0718L335 76.9282L323 70Z" fill="url(#paint16_linear_2_4)" fill-opacity="0.5"/>
<path d="M311 35L323 28.0718L323 41.9282L311 35Z" fill="url(#paint17_linear_2_4)" fill-opacity="0.5"/>
<path d="M311 77L323 70.0718L323 83.9282L311 77Z" fill="url(#paint18_linear_2_4)" fill-opacity="0.5"/>
<path d="M311 7L323 0.0717959L323 13.9282L311 7Z" fill="url(#paint19_linear_2_4)" fill-opacity="0.5"/>
<path d="M323 42L335 35.0718L335 48.9282L323 42Z" fill="url(#paint20_linear_2_4)" fill-opacity="0.5"/>
<path d="M311 49L323 42.0718L323 55.9282L311 49Z" fill="url(#paint21_linear_2_4)" fill-opacity="0.5"/>
<path d="M346 14L358 7.0718L358 20.9282L346 14Z" fill="url(#paint22_linear_2_4)" fill-opacity="0.5"/>
<path d="M346 56L358 49.0718L358 62.9282L346 56Z" fill="url(#paint23_linear_2_4)" fill-opacity="0.5"/>
<path d="M334 21L346 14.0718L346 27.9282L334 21Z" fill="url(#paint24_linear_2_4)" fill-opacity="0.5"/>
<path d="M334 63L346 56.0718L346 69.9282L334 63Z" fill="url(#paint25_linear_2_4)" fill-opacity="0.5"/>
<path d="M346 28L358 21.0718L358 34.9282L346 28Z" fill="url(#paint26_linear_2_4)" fill-opacity="0.5"/>
<path d="M346 70L358 63.0718L358 76.9282L346 70Z" fill="url(#paint27_linear_2_4)" fill-opacity="0.5"/>
<path d="M334 35L346 28.0718L346 41.9282L334 35Z" fill="url(#paint28_linear_2_4)" fill-opacity="0.5"/>
<path d="M334 77L346 70.0718L346 83.9282L334 77Z" fill="url(#paint29_linear_2_4)" fill-opacity="0.5"/>
<path d="M334 7L346 0.0717959L346 13.9282L334 7Z" fill="url(#paint30_linear_2_4)" fill-opacity="0.5"/>
<path d="M346 42L358 35.0718L358 48.9282L346 42Z" fill="url(#paint31_linear_2_4)" fill-opacity="0.5"/>
<path d="M334 49L346 42.0718L346 55.9282L334 49Z" fill="url(#paint32_linear_2_4)" fill-opacity="0.5"/>
<path d="M207 14L219 7.0718L219 20.9282L207 14Z" fill="url(#paint33_linear_2_4)" fill-opacity="0.5"/>
<path d="M207 56L219 49.0718L219 62.9282L207 56Z" fill="url(#paint34_linear_2_4)" fill-opacity="0.5"/>
<path d="M195 21L207 14.0718L207 27.9282L195 21Z" fill="url(#paint35_linear_2_4)" fill-opacity="0.5"/>
<path d="M195 63L207 56.0718L207 69.9282L195 63Z" fill="url(#paint36_linear_2_4)" fill-opacity="0.5"/>
<path d="M207 28L219 21.0718L219 34.9282L207 28Z" fill="url(#paint37_linear_2_4)" fill-opacity="0.5"/>
<path d="M207 70L219 63.0718L219 76.9282L207 70Z" fill="url(#paint38_linear_2_4)" fill-opacity="0.5"/>
<path d="M195 35L207 28.0718L207 41.9282L195 35Z" fill="url(#paint39_linear_2_4)" fill-opacity="0.5"/>
<path d="M195 77L207 70.0718L207 83.9282L195 77Z" fill="url(#paint40_linear_2_4)" fill-opacity="0.5"/>
<path d="M195 7L207 0.0717959L207 13.9282L195 7Z" fill="url(#paint41_linear_2_4)" fill-opacity="0.5"/>
<path d="M207 42L219 35.0718L219 48.9282L207 42Z" fill="url(#paint42_linear_2_4)" fill-opacity="0.5"/>
<path d="M195 49L207 42.0718L207 55.9282L195 49Z" fill="url(#paint43_linear_2_4)" fill-opacity="0.5"/>
<path d="M183 14L195 7.0718L195 20.9282L183 14Z" fill="url(#paint44_linear_2_4)" fill-opacity="0.5"/>
<path d="M183 56L195 49.0718L195 62.9282L183 56Z" fill="url(#paint45_linear_2_4)" fill-opacity="0.5"/>
<path d="M171 21L183 14.0718L183 27.9282L171 21Z" fill="url(#paint46_linear_2_4)" fill-opacity="0.5"/>
<path d="M171 63L183 56.0718L183 69.9282L171 63Z" fill="url(#paint47_linear_2_4)" fill-opacity="0.5"/>
<path d="M183 28L195 21.0718L195 34.9282L183 28Z" fill="url(#paint48_linear_2_4)" fill-opacity="0.5"/>
<path d="M183 70L195 63.0718L195 76.9282L183 70Z" fill="url(#paint49_linear_2_4)" fill-opacity="0.5"/>
<path d="M171 35L183 28.0718L183 41.9282L171 35Z" fill="url(#paint50_linear_2_4)" fill-opacity="0.5"/>
<path d="M171 77L183 70.0718L183 83.9282L171 77Z" fill="url(#paint51_linear_2_4)" fill-opacity="0.5"/>
<path d="M171 7L183 0.0717959L183 13.9282L171 7Z" fill="url(#paint52_linear_2_4)" fill-opacity="0.5"/>
<path d="M183 42L195 35.0718L195 48.9282L183 42Z" fill="url(#paint53_linear_2_4)" fill-opacity="0.5"/>
<path d="M171 49L183 42.0718L183 55.9282L171 49Z" fill="url(#paint54_linear_2_4)" fill-opacity="0.5"/>
<path d="M159 14L171 7.0718L171 20.9282L159 14Z" fill="url(#paint55_linear_2_4)" fill-opacity="0.5"/>
<path d="M159 56L171 49.0718L171 62.9282L159 56Z" fill="url(#paint56_linear_2_4)" fill-opacity="0.5"/>
<path d="M147 21L159 14.0718L159 27.9282L147 21Z" fill="url(#paint57_linear_2_4)" fill-opacity="0.5"/>
<path d="M147 63L159 56.0718L159 69.9282L147 63Z" fill="url(#paint58_linear_2_4)" fill-opacity="0.5"/>
<path d="M159 28L171 21.0718L171 34.9282L159 28Z" fill="url(#paint59_linear_2_4)" fill-opacity="0.5"/>
<path d="M159 70L171 63.0718L171 76.9282L159 70Z" fill="url(#paint60_linear_2_4)" fill-opacity="0.5"/>
<path d="M147 35L159 28.0718L159 41.9282L147 35Z" fill="url(#paint61_linear_2_4)" fill-opacity="0.5"/>
<path d="M147 77L159 70.0718L159 83.9282L147 77Z" fill="url(#paint62_linear_2_4)" fill-opacity="0.5"/>
<path d="M147 7L159 0.0717959L159 13.9282L147 7Z" fill="url(#paint63_linear_2_4)" fill-opacity="0.5"/>
<path d="M159 42L171 35.0718L171 48.9282L159 42Z" fill="url(#paint64_linear_2_4)" fill-opacity="0.5"/>
<path d="M147 49L159 42.0718L159 55.9282L147 49Z" fill="url(#paint65_linear_2_4)" fill-opacity="0.5"/>
<path d="M135 14L147 7.0718L147 20.9282L135 14Z" fill="url(#paint66_linear_2_4)" fill-opacity="0.5"/>
<path d="M135 56L147 49.0718L147 62.9282L135 56Z" fill="url(#paint67_linear_2_4)" fill-opacity="0.5"/>
<path d="M123 21L135 14.0718L135 27.9282L123 21Z" fill="url(#paint68_linear_2_4)" fill-opacity="0.5"/>
<path d="M123 63L135 56.0718L135 69.9282L123 63Z" fill="url(#paint69_linear_2_4)" fill-opacity="0.5"/>
<path d="M135 28L147 21.0718L147 34.9282L135 28Z" fill="url(#paint70_linear_2_4)" fill-opacity="0.5"/>
<path d="M135 70L147 63.0718L147 76.9282L135 70Z" fill="url(#paint71_linear_2_4)" fill-opacity="0.5"/>
<path d="M123 35L135 28.0718L135 41.9282L123 35Z" fill="url(#paint72_linear_2_4)" fill-opacity="0.5"/>
<path d="M123 77L135 70.0718L135 83.9282L123 77Z" fill="url(#paint73_linear_2_4)" fill-opacity="0.5"/>
<path d="M123 7L135 0.0717959L135 13.9282L123 7Z" fill="url(#paint74_linear_2_4)" fill-opacity="0.5"/>
<path d="M135 42L147 35.0718L147 48.9282L135 42Z" fill="url(#paint75_linear_2_4)" fill-opacity="0.5"/>
<path d="M123 49L135 42.0718L135 55.9282L123 49Z" fill="url(#paint76_linear_2_4)" fill-opacity="0.5"/>
<path d="M111 14L123 7.0718L123 20.9282L111 14Z" fill="url(#paint77_linear_2_4)" fill-opacity="0.5"/>
<path d="M111 56L123 49.0718L123 62.9282L111 56Z" fill="url(#paint78_linear_2_4)" fill-opacity="0.5"/>
<path d="M99 21L111 14.0718L111 27.9282L99 21Z" fill="url(#paint79_linear_2_4)" fill-opacity="0.5"/>
<path d="M99 63L111 56.0718L111 69.9282L99 63Z" fill="url(#paint80_linear_2_4)" fill-opacity="0.5"/>
<path d="M111 28L123 21.0718L123 34.9282L111 28Z" fill="url(#paint81_linear_2_4)" fill-opacity="0.5"/>
<path d="M111 70L123 63.0718L123 76.9282L111 70Z" fill="url(#paint82_linear_2_4)" fill-opacity="0.5"/>
<path d="M99 35L111 28.0718L111 41.9282L99 35Z" fill="url(#paint83_linear_2_4)" fill-opacity="0.5"/>
<path d="M99 77L111 70.0718L111 83.9282L99 77Z" fill="url(#paint84_linear_2_4)" fill-opacity="0.5"/>
<path d="M99 7L111 0.0717959L111 13.9282L99 7Z" fill="url(#paint85_linear_2_4)" fill-opacity="0.5"/>
<path d="M111 42L123 35.0718L123 48.9282L111 42Z" fill="url(#paint86_linear_2_4)" fill-opacity="0.5"/>
<path d="M99 49L111 42.0718L111 55.9282L99 49Z" fill="url(#paint87_linear_2_4)" fill-opacity="0.5"/>
<path d="M87 14L99 7.0718L99 20.9282L87 14Z" fill="url(#paint88_linear_2_4)" fill-opacity="0.5"/>
<path d="M87 56L99 49.0718L99 62.9282L87 56Z" fill="url(#paint89_linear_2_4)" fill-opacity="0.5"/>
<path d="M75 21L87 14.0718L87 27.9282L75 21Z" fill="url(#paint90_linear_2_4)" fill-opacity="0.5"/>
<path d="M75 63L87 56.0718L87 69.9282L75 63Z" fill="url(#paint91_linear_2_4)" fill-opacity="0.5"/>
<path d="M87 28L99 21.0718L99 34.9282L87 28Z" fill="url(#paint92_linear_2_4)" fill-opacity="0.5"/>
<path d="M87 70L99 63.0718L99 76.9282L87 70Z" fill="url(#paint93_linear_2_4)" fill-opacity="0.5"/>
<path d="M75 35L87 28.0718L87 41.9282L75 35Z" fill="url(#paint94_linear_2_4)" fill-opacity="0.5"/>
<path d="M75 77L87 70.0718L87 83.9282L75 77Z" fill="url(#paint95_linear_2_4)" fill-opacity="0.5"/>
<path d="M75 7L87 0.0717959L87 13.9282L75 7Z" fill="url(#paint96_linear_2_4)" fill-opacity="0.5"/>
<path d="M87 42L99 35.0718L99 48.9282L87 42Z" fill="url(#paint97_linear_2_4)" fill-opacity="0.5"/>
<path d="M75 49L87 42.0718L87 55.9282L75 49Z" fill="url(#paint98_linear_2_4)" fill-opacity="0.5"/>
<path d="M63 14L75 7.0718L75 20.9282L63 14Z" fill="url(#paint99_linear_2_4)" fill-opacity="0.5"/>
<path d="M63 56L75 49.0718L75 62.9282L63 56Z" fill="url(#paint100_linear_2_4)" fill-opacity="0.5"/>
<path d="M51 21L63 14.0718L63 27.9282L51 21Z" fill="url(#paint101_linear_2_4)" fill-opacity="0.5"/>
<path d="M51 63L63 56.0718L63 69.9282L51 63Z" fill="url(#paint102_linear_2_4)" fill-opacity="0.5"/>
<path d="M63 28L75 21.0718L75 34.9282L63 28Z" fill="url(#paint103_linear_2_4)" fill-opacity="0.5"/>
<path d="M63 70L75 63.0718L75 76.9282L63 70Z" fill="url(#paint104_linear_2_4)" fill-opacity="0.5"/>
<path d="M51 35L63 28.0718L63 41.9282L51 35Z" fill="url(#paint105_linear_2_4)" fill-opacity="0.5"/>
<path d="M51 77L63 70.0718L63 83.9282L51 77Z" fill="url(#paint106_linear_2_4)" fill-opacity="0.5"/>
<path d="M51 7L63 0.0717959L63 13.9282L51 7Z" fill="url(#paint107_linear_2_4)" fill-opacity="0.5"/>
<path d="M63 42L75 35.0718L75 48.9282L63 42Z" fill="url(#paint108_linear_2_4)" fill-opacity="0.5"/>
<path d="M51 49L63 42.0718L63 55.9282L51 49Z" fill="url(#paint109_linear_2_4)" fill-opacity="0.5"/>
<path d="M39 14L51 7.0718L51 20.9282L39 14Z" fill="url(#paint110_linear_2_4)" fill-opacity="0.5"/>
<path d="M39 56L51 49.0718L51 62.9282L39 56Z" fill="url(#paint111_linear_2_4)" fill-opacity="0.5"/>
<path d="M27 21L39 14.0718L39 27.9282L27 21Z" fill="url(#paint112_linear_2_4)" fill-opacity="0.5"/>
<path d="M27 63L39 56.0718L39 69.9282L27 63Z" fill="url(#paint113_linear_2_4)" fill-opacity="0.5"/>
<path d="M39 28L51 21.0718L51 34.9282L39 28Z" fill="url(#paint114_linear_2_4)" fill-opacity="0.5"/>
<path d="M39 70L51 63.0718L51 76.9282L39 70Z" fill="url(#paint115_linear_2_4)" fill-opacity="0.5"/>
<path d="M27 35L39 28.0718L39 41.9282L27 35Z" fill="url(#paint116_linear_2_4)" fill-opacity="0.5"/>
<path d="M27 77L39 70.0718L39 83.9282L27 77Z" fill="url(#paint117_linear_2_4)" fill-opacity="0.5"/>
<path d="M27 7L39 0.0717959L39 13.9282L27 7Z" fill="url(#paint118_linear_2_4)" fill-opacity="0.5"/>
<path d="M39 42L51 35.0718L51 48.9282L39 42Z" fill="url(#paint119_linear_2_4)" fill-opacity="0.5"/>
<path d="M27 49L39 42.0718L39 55.9282L27 49Z" fill="url(#paint120_linear_2_4)" fill-opacity="0.5"/>
<path d="M15 14L27 7.0718L27 20.9282L15 14Z" fill="url(#paint121_linear_2_4)" fill-opacity="0.5"/>
<path d="M15 56L27 49.0718L27 62.9282L15 56Z" fill="url(#paint122_linear_2_4)" fill-opacity="0.5"/>
<path d="M3 21L15 14.0718L15 27.9282L3 21Z" fill="url(#paint123_linear_2_4)" fill-opacity="0.5"/>
<path d="M15 28L27 21.0718L27 34.9282L15 28Z" fill="url(#paint124_linear_2_4)" fill-opacity="0.5"/>
<path d="M15 70L27 63.0718L27 76.9282L15 70Z" fill="url(#paint125_linear_2_4)" fill-opacity="0.5"/>
<path d="M3 7L15 0.0717959L15 13.9282L3 7Z" fill="url(#paint126_linear_2_4)" fill-opacity="0.5"/>
<path d="M15 42L27 35.0718L27 48.9282L15 42Z" fill="url(#paint127_linear_2_4)" fill-opacity="0.5"/>
<path d="M3 49L15 42.0718L15 55.9282L3 49Z" fill="url(#paint128_linear_2_4)" fill-opacity="0.5"/>
<path d="M254 14L266 7.0718L266 20.9282L254 14Z" fill="url(#paint129_linear_2_4)" fill-opacity="0.5"/>
<path d="M254 56L266 49.0718L266 62.9282L254 56Z" fill="url(#paint130_linear_2_4)" fill-opacity="0.5"/>
<path d="M277 56L289 49.0718L289 62.9282L277 56Z" fill="url(#paint131_linear_2_4)" fill-opacity="0.5"/>
<path d="M300 56L312 49.0718L312 62.9282L300 56Z" fill="url(#paint132_linear_2_4)" fill-opacity="0.5"/>
<path d="M242 21L254 14.0718L254 27.9282L242 21Z" fill="url(#paint133_linear_2_4)" fill-opacity="0.5"/>
<path d="M242 63L254 56.0718L254 69.9282L242 63Z" fill="url(#paint134_linear_2_4)" fill-opacity="0.5"/>
<path d="M254 28L266 21.0718L266 34.9282L254 28Z" fill="url(#paint135_linear_2_4)" fill-opacity="0.5"/>
<path d="M254 70L266 63.0718L266 76.9282L254 70Z" fill="url(#paint136_linear_2_4)" fill-opacity="0.5"/>
<path d="M242 35L254 28.0718L254 41.9282L242 35Z" fill="url(#paint137_linear_2_4)" fill-opacity="0.5"/>
<path d="M242 77L254 70.0718L254 83.9282L242 77Z" fill="url(#paint138_linear_2_4)" fill-opacity="0.5"/>
<path d="M242 7L254 0.0717959L254 13.9282L242 7Z" fill="url(#paint139_linear_2_4)" fill-opacity="0.5"/>
<path d="M254 42L266 35.0718L266 48.9282L254 42Z" fill="url(#paint140_linear_2_4)" fill-opacity="0.5"/>
<path d="M242 49L254 42.0718L254 55.9282L242 49Z" fill="url(#paint141_linear_2_4)" fill-opacity="0.5"/>
<path d="M277 14L289 7.0718L289 20.9282L277 14Z" fill="url(#paint142_linear_2_4)" fill-opacity="0.5"/>
<path d="M265 21L277 14.0718L277 27.9282L265 21Z" fill="url(#paint143_linear_2_4)" fill-opacity="0.5"/>
<path d="M265 63L277 56.0718L277 69.9282L265 63Z" fill="url(#paint144_linear_2_4)" fill-opacity="0.5"/>
<path d="M277 28L289 21.0718L289 34.9282L277 28Z" fill="url(#paint145_linear_2_4)" fill-opacity="0.5"/>
<path d="M277 70L289 63.0718L289 76.9282L277 70Z" fill="url(#paint146_linear_2_4)" fill-opacity="0.5"/>
<path d="M265 35L277 28.0718L277 41.9282L265 35Z" fill="url(#paint147_linear_2_4)" fill-opacity="0.5"/>
<path d="M265 77L277 70.0718L277 83.9282L265 77Z" fill="url(#paint148_linear_2_4)" fill-opacity="0.5"/>
<path d="M265 7L277 0.0717959L277 13.9282L265 7Z" fill="url(#paint149_linear_2_4)" fill-opacity="0.5"/>
<path d="M277 42L289 35.0718L289 48.9282L277 42Z" fill="url(#paint150_linear_2_4)" fill-opacity="0.5"/>
<path d="M265 49L277 42.0718L277 55.9282L265 49Z" fill="url(#paint151_linear_2_4)" fill-opacity="0.5"/>
<path d="M300 14L312 7.0718L312 20.9282L300 14Z" fill="url(#paint152_linear_2_4)" fill-opacity="0.5"/>
<path d="M288 21L300 14.0718L300 27.9282L288 21Z" fill="url(#paint153_linear_2_4)" fill-opacity="0.5"/>
<path d="M288 63L300 56.0718L300 69.9282L288 63Z" fill="url(#paint154_linear_2_4)" fill-opacity="0.5"/>
<path d="M300 28L312 21.0718L312 34.9282L300 28Z" fill="url(#paint155_linear_2_4)" fill-opacity="0.5"/>
<path d="M300 70L312 63.0718L312 76.9282L300 70Z" fill="url(#paint156_linear_2_4)" fill-opacity="0.5"/>
<path d="M288 35L300 28.0718L300 41.9282L288 35Z" fill="url(#paint157_linear_2_4)" fill-opacity="0.5"/>
<path d="M288 77L300 70.0718L300 83.9282L288 77Z" fill="url(#paint158_linear_2_4)" fill-opacity="0.5"/>
<path d="M288 7L300 0.0717959L300 13.9282L288 7Z" fill="url(#paint159_linear_2_4)" fill-opacity="0.5"/>
<path d="M300 42L312 35.0718L312 48.9282L300 42Z" fill="url(#paint160_linear_2_4)" fill-opacity="0.5"/>
<path d="M288 49L300 42.0718L300 55.9282L288 49Z" fill="url(#paint161_linear_2_4)" fill-opacity="0.5"/>
</g>
<defs>
<linearGradient id="paint0_linear_2_4" x1="232" y1="14" x2="243" y2="14" gradientUnits="userSpaceOnUse">
<stop stop-opacity="0.19"/>
<stop offset="0.979167" stop-opacity="0.5"/>
</linearGradient>
<linearGradient id="paint1_linear_2_4" x1="232" y1="56" x2="243" y2="56" gradientUnits="userSpaceOnUse">
<stop stop-opacity="0.19"/>
<stop offset="0.979167" stop-opacity="0.5"/>
</linearGradient>
<linearGradient id="paint2_linear_2_4" x1="220" y1="21" x2="231" y2="21" gradientUnits="userSpaceOnUse">
<stop stop-opacity="0.19"/>
<stop offset="0.979167" stop-opacity="0.5"/>
</linearGradient>
<linearGradient id="paint3_linear_2_4" x1="220" y1="63" x2="231" y2="63" gradientUnits="userSpaceOnUse">
<stop stop-opacity="0.19"/>
<stop offset="0.979167" stop-opacity="0.5"/>
</linearGradient>
<linearGradient id="paint4_linear_2_4" x1="232" y1="28" x2="243" y2="28" gradientUnits="userSpaceOnUse">
<stop stop-opacity="0.19"/>
<stop offset="0.979167" stop-opacity="0.5"/>
</linearGradient>
<linearGradient id="paint5_linear_2_4" x1="232" y1="70" x2="243" y2="70" gradientUnits="userSpaceOnUse">
<stop stop-opacity="0.19"/>
<stop offset="0.979167" stop-opacity="0.5"/>
</linearGradient>
<linearGradient id="paint6_linear_2_4" x1="220" y1="35" x2="231" y2="35" gradientUnits="userSpaceOnUse">
<stop stop-opacity="0.19"/>
<stop offset="0.979167" stop-opacity="0.5"/>
</linearGradient>
<linearGradient id="paint7_linear_2_4" x1="220" y1="77" x2="231" y2="77" gradientUnits="userSpaceOnUse">
<stop stop-opacity="0.19"/>
<stop offset="0.979167" stop-opacity="0.5"/>
</linearGradient>
<linearGradient id="paint8_linear_2_4" x1="220" y1="7" x2="231" y2="7" gradientUnits="userSpaceOnUse">
<stop stop-opacity="0.19"/>
<stop offset="0.979167" stop-opacity="0.5"/>
</linearGradient>
<linearGradient id="paint9_linear_2_4" x1="232" y1="42" x2="243" y2="42" gradientUnits="userSpaceOnUse">
<stop stop-opacity="0.19"/>
<stop offset="0.979167" stop-opacity="0.5"/>
</linearGradient>
<linearGradient id="paint10_linear_2_4" x1="220" y1="49" x2="231" y2="49" gradientUnits="userSpaceOnUse">
<stop stop-opacity="0.19"/>
<stop offset="0.979167" stop-opacity="0.5"/>
</linearGradient>
<linearGradient id="paint11_linear_2_4" x1="324" y1="14" x2="335" y2="14" gradientUnits="userSpaceOnUse">
<stop stop-opacity="0.19"/>
<stop offset="0.979167" stop-opacity="0.5"/>
</linearGradient>
<linearGradient id="paint12_linear_2_4" x1="324" y1="56" x2="335" y2="56" gradientUnits="userSpaceOnUse">
<stop stop-opacity="0.19"/>
<stop offset="0.979167" stop-opacity="0.5"/>
</linearGradient>
<linearGradient id="paint13_linear_2_4" x1="312" y1="21" x2="323" y2="21" gradientUnits="userSpaceOnUse">
<stop stop-opacity="0.19"/>
<stop offset="0.979167" stop-opacity="0.5"/>
</linearGradient>
<linearGradient id="paint14_linear_2_4" x1="312" y1="63" x2="323" y2="63" gradientUnits="userSpaceOnUse">
<stop stop-opacity="0.19"/>
<stop offset="0.979167" stop-opacity="0.5"/>
</linearGradient>
<linearGradient id="paint15_linear_2_4" x1="324" y1="28" x2="335" y2="28" gradientUnits="userSpaceOnUse">
<stop stop-opacity="0.19"/>
<stop offset="0.979167" stop-opacity="0.5"/>
</linearGradient>
<linearGradient id="paint16_linear_2_4" x1="324" y1="70" x2="335" y2="70" gradientUnits="userSpaceOnUse">
<stop stop-opacity="0.19"/>
<stop offset="0.979167" stop-opacity="0.5"/>
</linearGradient>
<linearGradient id="paint17_linear_2_4" x1="312" y1="35" x2="323" y2="35" gradientUnits="userSpaceOnUse">
<stop stop-opacity="0.19"/>
<stop offset="0.979167" stop-opacity="0.5"/>
</linearGradient>
<linearGradient id="paint18_linear_2_4" x1="312" y1="77" x2="323" y2="77" gradientUnits="userSpaceOnUse">
<stop stop-opacity="0.19"/>
<stop offset="0.979167" stop-opacity="0.5"/>
</linearGradient>
<linearGradient id="paint19_linear_2_4" x1="312" y1="7" x2="323" y2="7" gradientUnits="userSpaceOnUse">
<stop stop-opacity="0.19"/>
<stop offset="0.979167" stop-opacity="0.5"/>
</linearGradient>
<linearGradient id="paint20_linear_2_4" x1="324" y1="42" x2="335" y2="42" gradientUnits="userSpaceOnUse">
<stop stop-opacity="0.19"/>
<stop offset="0.979167" stop-opacity="0.5"/>
</linearGradient>
<linearGradient id="paint21_linear_2_4" x1="312" y1="49" x2="323" y2="49" gradientUnits="userSpaceOnUse">
<stop stop-opacity="0.19"/>
<stop offset="0.979167" stop-opacity="0.5"/>
</linearGradient>
<linearGradient id="paint22_linear_2_4" x1="347" y1="14" x2="358" y2="14" gradientUnits="userSpaceOnUse">
<stop stop-opacity="0.19"/>
<stop offset="0.979167" stop-opacity="0.5"/>
</linearGradient>
<linearGradient id="paint23_linear_2_4" x1="347" y1="56" x2="358" y2="56" gradientUnits="userSpaceOnUse">
<stop stop-opacity="0.19"/>
<stop offset="0.979167" stop-opacity="0.5"/>
</linearGradient>
<linearGradient id="paint24_linear_2_4" x1="335" y1="21" x2="346" y2="21" gradientUnits="userSpaceOnUse">
<stop stop-opacity="0.19"/>
<stop offset="0.979167" stop-opacity="0.5"/>
</linearGradient>
<linearGradient id="paint25_linear_2_4" x1="335" y1="63" x2="346" y2="63" gradientUnits="userSpaceOnUse">
<stop stop-opacity="0.19"/>
<stop offset="0.979167" stop-opacity="0.5"/>
</linearGradient>
<linearGradient id="paint26_linear_2_4" x1="347" y1="28" x2="358" y2="28" gradientUnits="userSpaceOnUse">
<stop stop-opacity="0.19"/>
<stop offset="0.979167" stop-opacity="0.5"/>
</linearGradient>
<linearGradient id="paint27_linear_2_4" x1="347" y1="70" x2="358" y2="70" gradientUnits="userSpaceOnUse">
<stop stop-opacity="0.19"/>
<stop offset="0.979167" stop-opacity="0.5"/>
</linearGradient>
<linearGradient id="paint28_linear_2_4" x1="335" y1="35" x2="346" y2="35" gradientUnits="userSpaceOnUse">
<stop stop-opacity="0.19"/>
<stop offset="0.979167" stop-opacity="0.5"/>
</linearGradient>
<linearGradient id="paint29_linear_2_4" x1="335" y1="77" x2="346" y2="77" gradientUnits="userSpaceOnUse">
<stop stop-opacity="0.19"/>
<stop offset="0.979167" stop-opacity="0.5"/>
</linearGradient>
<linearGradient id="paint30_linear_2_4" x1="335" y1="7" x2="346" y2="7" gradientUnits="userSpaceOnUse">
<stop stop-opacity="0.19"/>
<stop offset="0.979167" stop-opacity="0.5"/>
</linearGradient>
<linearGradient id="paint31_linear_2_4" x1="347" y1="42" x2="358" y2="42" gradientUnits="userSpaceOnUse">
<stop stop-opacity="0.19"/>
<stop offset="0.979167" stop-opacity="0.5"/>
</linearGradient>
<linearGradient id="paint32_linear_2_4" x1="335" y1="49" x2="346" y2="49" gradientUnits="userSpaceOnUse">
<stop stop-opacity="0.19"/>
<stop offset="0.979167" stop-opacity="0.5"/>
</linearGradient>
<linearGradient id="paint33_linear_2_4" x1="208" y1="14" x2="219" y2="14" gradientUnits="userSpaceOnUse">
<stop stop-opacity="0.19"/>
<stop offset="0.979167" stop-opacity="0.5"/>
</linearGradient>
<linearGradient id="paint34_linear_2_4" x1="208" y1="56" x2="219" y2="56" gradientUnits="userSpaceOnUse">
<stop stop-opacity="0.19"/>
<stop offset="0.979167" stop-opacity="0.5"/>
</linearGradient>
<linearGradient id="paint35_linear_2_4" x1="196" y1="21" x2="207" y2="21" gradientUnits="userSpaceOnUse">
<stop stop-opacity="0.19"/>
<stop offset="0.979167" stop-opacity="0.5"/>
</linearGradient>
<linearGradient id="paint36_linear_2_4" x1="196" y1="63" x2="207" y2="63" gradientUnits="userSpaceOnUse">
<stop stop-opacity="0.19"/>
<stop offset="0.979167" stop-opacity="0.5"/>
</linearGradient>
<linearGradient id="paint37_linear_2_4" x1="208" y1="28" x2="219" y2="28" gradientUnits="userSpaceOnUse">
<stop stop-opacity="0.19"/>
<stop offset="0.979167" stop-opacity="0.5"/>
</linearGradient>
<linearGradient id="paint38_linear_2_4" x1="208" y1="70" x2="219" y2="70" gradientUnits="userSpaceOnUse">
<stop stop-opacity="0.19"/>
<stop offset="0.979167" stop-opacity="0.5"/>
</linearGradient>
<linearGradient id="paint39_linear_2_4" x1="196" y1="35" x2="207" y2="35" gradientUnits="userSpaceOnUse">
<stop stop-opacity="0.19"/>
<stop offset="0.979167" stop-opacity="0.5"/>
</linearGradient>
<linearGradient id="paint40_linear_2_4" x1="196" y1="77" x2="207" y2="77" gradientUnits="userSpaceOnUse">
<stop stop-opacity="0.19"/>
<stop offset="0.979167" stop-opacity="0.5"/>
</linearGradient>
<linearGradient id="paint41_linear_2_4" x1="196" y1="7" x2="207" y2="7" gradientUnits="userSpaceOnUse">
<stop stop-opacity="0.19"/>
<stop offset="0.979167" stop-opacity="0.5"/>
</linearGradient>
<linearGradient id="paint42_linear_2_4" x1="208" y1="42" x2="219" y2="42" gradientUnits="userSpaceOnUse">
<stop stop-opacity="0.19"/>
<stop offset="0.979167" stop-opacity="0.5"/>
</linearGradient>
<linearGradient id="paint43_linear_2_4" x1="196" y1="49" x2="207" y2="49" gradientUnits="userSpaceOnUse">
<stop stop-opacity="0.19"/>
<stop offset="0.979167" stop-opacity="0.5"/>
</linearGradient>
<linearGradient id="paint44_linear_2_4" x1="184" y1="14" x2="195" y2="14" gradientUnits="userSpaceOnUse">
<stop stop-opacity="0.19"/>
<stop offset="0.979167" stop-opacity="0.5"/>
</linearGradient>
<linearGradient id="paint45_linear_2_4" x1="184" y1="56" x2="195" y2="56" gradientUnits="userSpaceOnUse">
<stop stop-opacity="0.19"/>
<stop offset="0.979167" stop-opacity="0.5"/>
</linearGradient>
<linearGradient id="paint46_linear_2_4" x1="172" y1="21" x2="183" y2="21" gradientUnits="userSpaceOnUse">
<stop stop-opacity="0.19"/>
<stop offset="0.979167" stop-opacity="0.5"/>
</linearGradient>
<linearGradient id="paint47_linear_2_4" x1="172" y1="63" x2="183" y2="63" gradientUnits="userSpaceOnUse">
<stop stop-opacity="0.19"/>
<stop offset="0.979167" stop-opacity="0.5"/>
</linearGradient>
<linearGradient id="paint48_linear_2_4" x1="184" y1="28" x2="195" y2="28" gradientUnits="userSpaceOnUse">
<stop stop-opacity="0.19"/>
<stop offset="0.979167" stop-opacity="0.5"/>
</linearGradient>
<linearGradient id="paint49_linear_2_4" x1="184" y1="70" x2="195" y2="70" gradientUnits="userSpaceOnUse">
<stop stop-opacity="0.19"/>
<stop offset="0.979167" stop-opacity="0.5"/>
</linearGradient>
<linearGradient id="paint50_linear_2_4" x1="172" y1="35" x2="183" y2="35" gradientUnits="userSpaceOnUse">
<stop stop-opacity="0.19"/>
<stop offset="0.979167" stop-opacity="0.5"/>
</linearGradient>
<linearGradient id="paint51_linear_2_4" x1="172" y1="77" x2="183" y2="77" gradientUnits="userSpaceOnUse">
<stop stop-opacity="0.19"/>
<stop offset="0.979167" stop-opacity="0.5"/>
</linearGradient>
<linearGradient id="paint52_linear_2_4" x1="172" y1="7" x2="183" y2="7" gradientUnits="userSpaceOnUse">
<stop stop-opacity="0.19"/>
<stop offset="0.979167" stop-opacity="0.5"/>
</linearGradient>
<linearGradient id="paint53_linear_2_4" x1="184" y1="42" x2="195" y2="42" gradientUnits="userSpaceOnUse">
<stop stop-opacity="0.19"/>
<stop offset="0.979167" stop-opacity="0.5"/>
</linearGradient>
<linearGradient id="paint54_linear_2_4" x1="172" y1="49" x2="183" y2="49" gradientUnits="userSpaceOnUse">
<stop stop-opacity="0.19"/>
<stop offset="0.979167" stop-opacity="0.5"/>
</linearGradient>
<linearGradient id="paint55_linear_2_4" x1="160" y1="14" x2="171" y2="14" gradientUnits="userSpaceOnUse">
<stop stop-opacity="0.19"/>
<stop offset="0.979167" stop-opacity="0.5"/>
</linearGradient>
<linearGradient id="paint56_linear_2_4" x1="160" y1="56" x2="171" y2="56" gradientUnits="userSpaceOnUse">
<stop stop-opacity="0.19"/>
<stop offset="0.979167" stop-opacity="0.5"/>
</linearGradient>
<linearGradient id="paint57_linear_2_4" x1="148" y1="21" x2="159" y2="21" gradientUnits="userSpaceOnUse">
<stop stop-opacity="0.19"/>
<stop offset="0.979167" stop-opacity="0.5"/>
</linearGradient>
<linearGradient id="paint58_linear_2_4" x1="148" y1="63" x2="159" y2="63" gradientUnits="userSpaceOnUse">
<stop stop-opacity="0.19"/>
<stop offset="0.979167" stop-opacity="0.5"/>
</linearGradient>
<linearGradient id="paint59_linear_2_4" x1="160" y1="28" x2="171" y2="28" gradientUnits="userSpaceOnUse">
<stop stop-opacity="0.19"/>
<stop offset="0.979167" stop-opacity="0.5"/>
</linearGradient>
<linearGradient id="paint60_linear_2_4" x1="160" y1="70" x2="171" y2="70" gradientUnits="userSpaceOnUse">
<stop stop-opacity="0.19"/>
<stop offset="0.979167" stop-opacity="0.5"/>
</linearGradient>
<linearGradient id="paint61_linear_2_4" x1="148" y1="35" x2="159" y2="35" gradientUnits="userSpaceOnUse">
<stop stop-opacity="0.19"/>
<stop offset="0.979167" stop-opacity="0.5"/>
</linearGradient>
<linearGradient id="paint62_linear_2_4" x1="148" y1="77" x2="159" y2="77" gradientUnits="userSpaceOnUse">
<stop stop-opacity="0.19"/>
<stop offset="0.979167" stop-opacity="0.5"/>
</linearGradient>
<linearGradient id="paint63_linear_2_4" x1="148" y1="7" x2="159" y2="7" gradientUnits="userSpaceOnUse">
<stop stop-opacity="0.19"/>
<stop offset="0.979167" stop-opacity="0.5"/>
</linearGradient>
<linearGradient id="paint64_linear_2_4" x1="160" y1="42" x2="171" y2="42" gradientUnits="userSpaceOnUse">
<stop stop-opacity="0.19"/>
<stop offset="0.979167" stop-opacity="0.5"/>
</linearGradient>
<linearGradient id="paint65_linear_2_4" x1="148" y1="49" x2="159" y2="49" gradientUnits="userSpaceOnUse">
<stop stop-opacity="0.19"/>
<stop offset="0.979167" stop-opacity="0.5"/>
</linearGradient>
<linearGradient id="paint66_linear_2_4" x1="136" y1="14" x2="147" y2="14" gradientUnits="userSpaceOnUse">
<stop stop-opacity="0.19"/>
<stop offset="0.979167" stop-opacity="0.5"/>
</linearGradient>
<linearGradient id="paint67_linear_2_4" x1="136" y1="56" x2="147" y2="56" gradientUnits="userSpaceOnUse">
<stop stop-opacity="0.19"/>
<stop offset="0.979167" stop-opacity="0.5"/>
</linearGradient>
<linearGradient id="paint68_linear_2_4" x1="124" y1="21" x2="135" y2="21" gradientUnits="userSpaceOnUse">
<stop stop-opacity="0.19"/>
<stop offset="0.979167" stop-opacity="0.5"/>
</linearGradient>
<linearGradient id="paint69_linear_2_4" x1="124" y1="63" x2="135" y2="63" gradientUnits="userSpaceOnUse">
<stop stop-opacity="0.19"/>
<stop offset="0.979167" stop-opacity="0.5"/>
</linearGradient>
<linearGradient id="paint70_linear_2_4" x1="136" y1="28" x2="147" y2="28" gradientUnits="userSpaceOnUse">
<stop stop-opacity="0.19"/>
<stop offset="0.979167" stop-opacity="0.5"/>
</linearGradient>
<linearGradient id="paint71_linear_2_4" x1="136" y1="70" x2="147" y2="70" gradientUnits="userSpaceOnUse">
<stop stop-opacity="0.19"/>
<stop offset="0.979167" stop-opacity="0.5"/>
</linearGradient>
<linearGradient id="paint72_linear_2_4" x1="124" y1="35" x2="135" y2="35" gradientUnits="userSpaceOnUse">
<stop stop-opacity="0.19"/>
<stop offset="0.979167" stop-opacity="0.5"/>
</linearGradient>
<linearGradient id="paint73_linear_2_4" x1="124" y1="77" x2="135" y2="77" gradientUnits="userSpaceOnUse">
<stop stop-opacity="0.19"/>
<stop offset="0.979167" stop-opacity="0.5"/>
</linearGradient>
<linearGradient id="paint74_linear_2_4" x1="124" y1="7" x2="135" y2="7" gradientUnits="userSpaceOnUse">
<stop stop-opacity="0.19"/>
<stop offset="0.979167" stop-opacity="0.5"/>
</linearGradient>
<linearGradient id="paint75_linear_2_4" x1="136" y1="42" x2="147" y2="42" gradientUnits="userSpaceOnUse">
<stop stop-opacity="0.19"/>
<stop offset="0.979167" stop-opacity="0.5"/>
</linearGradient>
<linearGradient id="paint76_linear_2_4" x1="124" y1="49" x2="135" y2="49" gradientUnits="userSpaceOnUse">
<stop stop-opacity="0.19"/>
<stop offset="0.979167" stop-opacity="0.5"/>
</linearGradient>
<linearGradient id="paint77_linear_2_4" x1="112" y1="14" x2="123" y2="14" gradientUnits="userSpaceOnUse">
<stop stop-opacity="0.19"/>
<stop offset="0.979167" stop-opacity="0.5"/>
</linearGradient>
<linearGradient id="paint78_linear_2_4" x1="112" y1="56" x2="123" y2="56" gradientUnits="userSpaceOnUse">
<stop stop-opacity="0.19"/>
<stop offset="0.979167" stop-opacity="0.5"/>
</linearGradient>
<linearGradient id="paint79_linear_2_4" x1="100" y1="21" x2="111" y2="21" gradientUnits="userSpaceOnUse">
<stop stop-opacity="0.19"/>
<stop offset="0.979167" stop-opacity="0.5"/>
</linearGradient>
<linearGradient id="paint80_linear_2_4" x1="100" y1="63" x2="111" y2="63" gradientUnits="userSpaceOnUse">
<stop stop-opacity="0.19"/>
<stop offset="0.979167" stop-opacity="0.5"/>
</linearGradient>
<linearGradient id="paint81_linear_2_4" x1="112" y1="28" x2="123" y2="28" gradientUnits="userSpaceOnUse">
<stop stop-opacity="0.19"/>
<stop offset="0.979167" stop-opacity="0.5"/>
</linearGradient>
<linearGradient id="paint82_linear_2_4" x1="112" y1="70" x2="123" y2="70" gradientUnits="userSpaceOnUse">
<stop stop-opacity="0.19"/>
<stop offset="0.979167" stop-opacity="0.5"/>
</linearGradient>
<linearGradient id="paint83_linear_2_4" x1="100" y1="35" x2="111" y2="35" gradientUnits="userSpaceOnUse">
<stop stop-opacity="0.19"/>
<stop offset="0.979167" stop-opacity="0.5"/>
</linearGradient>
<linearGradient id="paint84_linear_2_4" x1="100" y1="77" x2="111" y2="77" gradientUnits="userSpaceOnUse">
<stop stop-opacity="0.19"/>
<stop offset="0.979167" stop-opacity="0.5"/>
</linearGradient>
<linearGradient id="paint85_linear_2_4" x1="100" y1="7" x2="111" y2="7" gradientUnits="userSpaceOnUse">
<stop stop-opacity="0.19"/>
<stop offset="0.979167" stop-opacity="0.5"/>
</linearGradient>
<linearGradient id="paint86_linear_2_4" x1="112" y1="42" x2="123" y2="42" gradientUnits="userSpaceOnUse">
<stop stop-opacity="0.19"/>
<stop offset="0.979167" stop-opacity="0.5"/>
</linearGradient>
<linearGradient id="paint87_linear_2_4" x1="100" y1="49" x2="111" y2="49" gradientUnits="userSpaceOnUse">
<stop stop-opacity="0.19"/>
<stop offset="0.979167" stop-opacity="0.5"/>
</linearGradient>
<linearGradient id="paint88_linear_2_4" x1="88" y1="14" x2="99" y2="14" gradientUnits="userSpaceOnUse">
<stop stop-opacity="0.19"/>
<stop offset="0.979167" stop-opacity="0.5"/>
</linearGradient>
<linearGradient id="paint89_linear_2_4" x1="88" y1="56" x2="99" y2="56" gradientUnits="userSpaceOnUse">
<stop stop-opacity="0.19"/>
<stop offset="0.979167" stop-opacity="0.5"/>
</linearGradient>
<linearGradient id="paint90_linear_2_4" x1="76" y1="21" x2="87" y2="21" gradientUnits="userSpaceOnUse">
<stop stop-opacity="0.19"/>
<stop offset="0.979167" stop-opacity="0.5"/>
</linearGradient>
<linearGradient id="paint91_linear_2_4" x1="76" y1="63" x2="87" y2="63" gradientUnits="userSpaceOnUse">
<stop stop-opacity="0.19"/>
<stop offset="0.979167" stop-opacity="0.5"/>
</linearGradient>
<linearGradient id="paint92_linear_2_4" x1="88" y1="28" x2="99" y2="28" gradientUnits="userSpaceOnUse">
<stop stop-opacity="0.19"/>
<stop offset="0.979167" stop-opacity="0.5"/>
</linearGradient>
<linearGradient id="paint93_linear_2_4" x1="88" y1="70" x2="99" y2="70" gradientUnits="userSpaceOnUse">
<stop stop-opacity="0.19"/>
<stop offset="0.979167" stop-opacity="0.5"/>
</linearGradient>
<linearGradient id="paint94_linear_2_4" x1="76" y1="35" x2="87" y2="35" gradientUnits="userSpaceOnUse">
<stop stop-opacity="0.19"/>
<stop offset="0.979167" stop-opacity="0.5"/>
</linearGradient>
<linearGradient id="paint95_linear_2_4" x1="76" y1="77" x2="87" y2="77" gradientUnits="userSpaceOnUse">
<stop stop-opacity="0.19"/>
<stop offset="0.979167" stop-opacity="0.5"/>
</linearGradient>
<linearGradient id="paint96_linear_2_4" x1="76" y1="7" x2="87" y2="7" gradientUnits="userSpaceOnUse">
<stop stop-opacity="0.19"/>
<stop offset="0.979167" stop-opacity="0.5"/>
</linearGradient>
<linearGradient id="paint97_linear_2_4" x1="88" y1="42" x2="99" y2="42" gradientUnits="userSpaceOnUse">
<stop stop-opacity="0.19"/>
<stop offset="0.979167" stop-opacity="0.5"/>
</linearGradient>
<linearGradient id="paint98_linear_2_4" x1="76" y1="49" x2="87" y2="49" gradientUnits="userSpaceOnUse">
<stop stop-opacity="0.19"/>
<stop offset="0.979167" stop-opacity="0.5"/>
</linearGradient>
<linearGradient id="paint99_linear_2_4" x1="64" y1="14" x2="75" y2="14" gradientUnits="userSpaceOnUse">
<stop stop-opacity="0.19"/>
<stop offset="0.979167" stop-opacity="0.5"/>
</linearGradient>
<linearGradient id="paint100_linear_2_4" x1="64" y1="56" x2="75" y2="56" gradientUnits="userSpaceOnUse">
<stop stop-opacity="0.19"/>
<stop offset="0.979167" stop-opacity="0.5"/>
</linearGradient>
<linearGradient id="paint101_linear_2_4" x1="52" y1="21" x2="63" y2="21" gradientUnits="userSpaceOnUse">
<stop stop-opacity="0.19"/>
<stop offset="0.979167" stop-opacity="0.5"/>
</linearGradient>
<linearGradient id="paint102_linear_2_4" x1="52" y1="63" x2="63" y2="63" gradientUnits="userSpaceOnUse">
<stop stop-opacity="0.19"/>
<stop offset="0.979167" stop-opacity="0.5"/>
</linearGradient>
<linearGradient id="paint103_linear_2_4" x1="64" y1="28" x2="75" y2="28" gradientUnits="userSpaceOnUse">
<stop stop-opacity="0.19"/>
<stop offset="0.979167" stop-opacity="0.5"/>
</linearGradient>
<linearGradient id="paint104_linear_2_4" x1="64" y1="70" x2="75" y2="70" gradientUnits="userSpaceOnUse">
<stop stop-opacity="0.19"/>
<stop offset="0.979167" stop-opacity="0.5"/>
</linearGradient>
<linearGradient id="paint105_linear_2_4" x1="52" y1="35" x2="63" y2="35" gradientUnits="userSpaceOnUse">
<stop stop-opacity="0.19"/>
<stop offset="0.979167" stop-opacity="0.5"/>
</linearGradient>
<linearGradient id="paint106_linear_2_4" x1="52" y1="77" x2="63" y2="77" gradientUnits="userSpaceOnUse">
<stop stop-opacity="0.19"/>
<stop offset="0.979167" stop-opacity="0.5"/>
</linearGradient>
<linearGradient id="paint107_linear_2_4" x1="52" y1="7" x2="63" y2="7" gradientUnits="userSpaceOnUse">
<stop stop-opacity="0.19"/>
<stop offset="0.979167" stop-opacity="0.5"/>
</linearGradient>
<linearGradient id="paint108_linear_2_4" x1="64" y1="42" x2="75" y2="42" gradientUnits="userSpaceOnUse">
<stop stop-opacity="0.19"/>
<stop offset="0.979167" stop-opacity="0.5"/>
</linearGradient>
<linearGradient id="paint109_linear_2_4" x1="52" y1="49" x2="63" y2="49" gradientUnits="userSpaceOnUse">
<stop stop-opacity="0.19"/>
<stop offset="0.979167" stop-opacity="0.5"/>
</linearGradient>
<linearGradient id="paint110_linear_2_4" x1="40" y1="14" x2="51" y2="14" gradientUnits="userSpaceOnUse">
<stop stop-opacity="0.19"/>
<stop offset="0.979167" stop-opacity="0.5"/>
</linearGradient>
<linearGradient id="paint111_linear_2_4" x1="40" y1="56" x2="51" y2="56" gradientUnits="userSpaceOnUse">
<stop stop-opacity="0.19"/>
<stop offset="0.979167" stop-opacity="0.5"/>
</linearGradient>
<linearGradient id="paint112_linear_2_4" x1="28" y1="21" x2="39" y2="21" gradientUnits="userSpaceOnUse">
<stop stop-opacity="0.19"/>
<stop offset="0.979167" stop-opacity="0.5"/>
</linearGradient>
<linearGradient id="paint113_linear_2_4" x1="28" y1="63" x2="39" y2="63" gradientUnits="userSpaceOnUse">
<stop stop-opacity="0.19"/>
<stop offset="0.979167" stop-opacity="0.5"/>
</linearGradient>
<linearGradient id="paint114_linear_2_4" x1="40" y1="28" x2="51" y2="28" gradientUnits="userSpaceOnUse">
<stop stop-opacity="0.19"/>
<stop offset="0.979167" stop-opacity="0.5"/>
</linearGradient>
<linearGradient id="paint115_linear_2_4" x1="40" y1="70" x2="51" y2="70" gradientUnits="userSpaceOnUse">
<stop stop-opacity="0.19"/>
<stop offset="0.979167" stop-opacity="0.5"/>
</linearGradient>
<linearGradient id="paint116_linear_2_4" x1="28" y1="35" x2="39" y2="35" gradientUnits="userSpaceOnUse">
<stop stop-opacity="0.19"/>
<stop offset="0.979167" stop-opacity="0.5"/>
</linearGradient>
<linearGradient id="paint117_linear_2_4" x1="28" y1="77" x2="39" y2="77" gradientUnits="userSpaceOnUse">
<stop stop-opacity="0.19"/>
<stop offset="0.979167" stop-opacity="0.5"/>
</linearGradient>
<linearGradient id="paint118_linear_2_4" x1="28" y1="7" x2="39" y2="7" gradientUnits="userSpaceOnUse">
<stop stop-opacity="0.19"/>
<stop offset="0.979167" stop-opacity="0.5"/>
</linearGradient>
<linearGradient id="paint119_linear_2_4" x1="40" y1="42" x2="51" y2="42" gradientUnits="userSpaceOnUse">
<stop stop-opacity="0.19"/>
<stop offset="0.979167" stop-opacity="0.5"/>
</linearGradient>
<linearGradient id="paint120_linear_2_4" x1="28" y1="49" x2="39" y2="49" gradientUnits="userSpaceOnUse">
<stop stop-opacity="0.19"/>
<stop offset="0.979167" stop-opacity="0.5"/>
</linearGradient>
<linearGradient id="paint121_linear_2_4" x1="16" y1="14" x2="27" y2="14" gradientUnits="userSpaceOnUse">
<stop stop-opacity="0.19"/>
<stop offset="0.979167" stop-opacity="0.5"/>
</linearGradient>
<linearGradient id="paint122_linear_2_4" x1="16" y1="56" x2="27" y2="56" gradientUnits="userSpaceOnUse">
<stop stop-opacity="0.19"/>
<stop offset="0.979167" stop-opacity="0.5"/>
</linearGradient>
<linearGradient id="paint123_linear_2_4" x1="4" y1="21" x2="15" y2="21" gradientUnits="userSpaceOnUse">
<stop stop-opacity="0.19"/>
<stop offset="0.979167" stop-opacity="0.5"/>
</linearGradient>
<linearGradient id="paint124_linear_2_4" x1="16" y1="28" x2="27" y2="28" gradientUnits="userSpaceOnUse">
<stop stop-opacity="0.19"/>
<stop offset="0.979167" stop-opacity="0.5"/>
</linearGradient>
<linearGradient id="paint125_linear_2_4" x1="16" y1="70" x2="27" y2="70" gradientUnits="userSpaceOnUse">
<stop stop-opacity="0.19"/>
<stop offset="0.979167" stop-opacity="0.5"/>
</linearGradient>
<linearGradient id="paint126_linear_2_4" x1="4" y1="7" x2="15" y2="7" gradientUnits="userSpaceOnUse">
<stop stop-opacity="0.19"/>
<stop offset="0.979167" stop-opacity="0.5"/>
</linearGradient>
<linearGradient id="paint127_linear_2_4" x1="16" y1="42" x2="27" y2="42" gradientUnits="userSpaceOnUse">
<stop stop-opacity="0.19"/>
<stop offset="0.979167" stop-opacity="0.5"/>
</linearGradient>
<linearGradient id="paint128_linear_2_4" x1="4" y1="49" x2="15" y2="49" gradientUnits="userSpaceOnUse">
<stop stop-opacity="0.19"/>
<stop offset="0.979167" stop-opacity="0.5"/>
</linearGradient>
<linearGradient id="paint129_linear_2_4" x1="255" y1="14" x2="266" y2="14" gradientUnits="userSpaceOnUse">
<stop stop-opacity="0.19"/>
<stop offset="0.979167" stop-opacity="0.5"/>
</linearGradient>
<linearGradient id="paint130_linear_2_4" x1="255" y1="56" x2="266" y2="56" gradientUnits="userSpaceOnUse">
<stop stop-opacity="0.19"/>
<stop offset="0.979167" stop-opacity="0.5"/>
</linearGradient>
<linearGradient id="paint131_linear_2_4" x1="278" y1="56" x2="289" y2="56" gradientUnits="userSpaceOnUse">
<stop stop-opacity="0.19"/>
<stop offset="0.979167" stop-opacity="0.5"/>
</linearGradient>
<linearGradient id="paint132_linear_2_4" x1="301" y1="56" x2="312" y2="56" gradientUnits="userSpaceOnUse">
<stop stop-opacity="0.19"/>
<stop offset="0.979167" stop-opacity="0.5"/>
</linearGradient>
<linearGradient id="paint133_linear_2_4" x1="243" y1="21" x2="254" y2="21" gradientUnits="userSpaceOnUse">
<stop stop-opacity="0.19"/>
<stop offset="0.979167" stop-opacity="0.5"/>
</linearGradient>
<linearGradient id="paint134_linear_2_4" x1="243" y1="63" x2="254" y2="63" gradientUnits="userSpaceOnUse">
<stop stop-opacity="0.19"/>
<stop offset="0.979167" stop-opacity="0.5"/>
</linearGradient>
<linearGradient id="paint135_linear_2_4" x1="255" y1="28" x2="266" y2="28" gradientUnits="userSpaceOnUse">
<stop stop-opacity="0.19"/>
<stop offset="0.979167" stop-opacity="0.5"/>
</linearGradient>
<linearGradient id="paint136_linear_2_4" x1="255" y1="70" x2="266" y2="70" gradientUnits="userSpaceOnUse">
<stop stop-opacity="0.19"/>
<stop offset="0.979167" stop-opacity="0.5"/>
</linearGradient>
<linearGradient id="paint137_linear_2_4" x1="243" y1="35" x2="254" y2="35" gradientUnits="userSpaceOnUse">
<stop stop-opacity="0.19"/>
<stop offset="0.979167" stop-opacity="0.5"/>
</linearGradient>
<linearGradient id="paint138_linear_2_4" x1="243" y1="77" x2="254" y2="77" gradientUnits="userSpaceOnUse">
<stop stop-opacity="0.19"/>
<stop offset="0.979167" stop-opacity="0.5"/>
</linearGradient>
<linearGradient id="paint139_linear_2_4" x1="243" y1="7" x2="254" y2="7" gradientUnits="userSpaceOnUse">
<stop stop-opacity="0.19"/>
<stop offset="0.979167" stop-opacity="0.5"/>
</linearGradient>
<linearGradient id="paint140_linear_2_4" x1="255" y1="42" x2="266" y2="42" gradientUnits="userSpaceOnUse">
<stop stop-opacity="0.19"/>
<stop offset="0.979167" stop-opacity="0.5"/>
</linearGradient>
<linearGradient id="paint141_linear_2_4" x1="243" y1="49" x2="254" y2="49" gradientUnits="userSpaceOnUse">
<stop stop-opacity="0.19"/>
<stop offset="0.979167" stop-opacity="0.5"/>
</linearGradient>
<linearGradient id="paint142_linear_2_4" x1="278" y1="14" x2="289" y2="14" gradientUnits="userSpaceOnUse">
<stop stop-opacity="0.19"/>
<stop offset="0.979167" stop-opacity="0.5"/>
</linearGradient>
<linearGradient id="paint143_linear_2_4" x1="266" y1="21" x2="277" y2="21" gradientUnits="userSpaceOnUse">
<stop stop-opacity="0.19"/>
<stop offset="0.979167" stop-opacity="0.5"/>
</linearGradient>
<linearGradient id="paint144_linear_2_4" x1="266" y1="63" x2="277" y2="63" gradientUnits="userSpaceOnUse">
<stop stop-opacity="0.19"/>
<stop offset="0.979167" stop-opacity="0.5"/>
</linearGradient>
<linearGradient id="paint145_linear_2_4" x1="278" y1="28" x2="289" y2="28" gradientUnits="userSpaceOnUse">
<stop stop-opacity="0.19"/>
<stop offset="0.979167" stop-opacity="0.5"/>
</linearGradient>
<linearGradient id="paint146_linear_2_4" x1="278" y1="70" x2="289" y2="70" gradientUnits="userSpaceOnUse">
<stop stop-opacity="0.19"/>
<stop offset="0.979167" stop-opacity="0.5"/>
</linearGradient>
<linearGradient id="paint147_linear_2_4" x1="266" y1="35" x2="277" y2="35" gradientUnits="userSpaceOnUse">
<stop stop-opacity="0.19"/>
<stop offset="0.979167" stop-opacity="0.5"/>
</linearGradient>
<linearGradient id="paint148_linear_2_4" x1="266" y1="77" x2="277" y2="77" gradientUnits="userSpaceOnUse">
<stop stop-opacity="0.19"/>
<stop offset="0.979167" stop-opacity="0.5"/>
</linearGradient>
<linearGradient id="paint149_linear_2_4" x1="266" y1="7" x2="277" y2="7" gradientUnits="userSpaceOnUse">
<stop stop-opacity="0.19"/>
<stop offset="0.979167" stop-opacity="0.5"/>
</linearGradient>
<linearGradient id="paint150_linear_2_4" x1="278" y1="42" x2="289" y2="42" gradientUnits="userSpaceOnUse">
<stop stop-opacity="0.19"/>
<stop offset="0.979167" stop-opacity="0.5"/>
</linearGradient>
<linearGradient id="paint151_linear_2_4" x1="266" y1="49" x2="277" y2="49" gradientUnits="userSpaceOnUse">
<stop stop-opacity="0.19"/>
<stop offset="0.979167" stop-opacity="0.5"/>
</linearGradient>
<linearGradient id="paint152_linear_2_4" x1="301" y1="14" x2="312" y2="14" gradientUnits="userSpaceOnUse">
<stop stop-opacity="0.19"/>
<stop offset="0.979167" stop-opacity="0.5"/>
</linearGradient>
<linearGradient id="paint153_linear_2_4" x1="289" y1="21" x2="300" y2="21" gradientUnits="userSpaceOnUse">
<stop stop-opacity="0.19"/>
<stop offset="0.979167" stop-opacity="0.5"/>
</linearGradient>
<linearGradient id="paint154_linear_2_4" x1="289" y1="63" x2="300" y2="63" gradientUnits="userSpaceOnUse">
<stop stop-opacity="0.19"/>
<stop offset="0.979167" stop-opacity="0.5"/>
</linearGradient>
<linearGradient id="paint155_linear_2_4" x1="301" y1="28" x2="312" y2="28" gradientUnits="userSpaceOnUse">
<stop stop-opacity="0.19"/>
<stop offset="0.979167" stop-opacity="0.5"/>
</linearGradient>
<linearGradient id="paint156_linear_2_4" x1="301" y1="70" x2="312" y2="70" gradientUnits="userSpaceOnUse">
<stop stop-opacity="0.19"/>
<stop offset="0.979167" stop-opacity="0.5"/>
</linearGradient>
<linearGradient id="paint157_linear_2_4" x1="289" y1="35" x2="300" y2="35" gradientUnits="userSpaceOnUse">
<stop stop-opacity="0.19"/>
<stop offset="0.979167" stop-opacity="0.5"/>
</linearGradient>
<linearGradient id="paint158_linear_2_4" x1="289" y1="77" x2="300" y2="77" gradientUnits="userSpaceOnUse">
<stop stop-opacity="0.19"/>
<stop offset="0.979167" stop-opacity="0.5"/>
</linearGradient>
<linearGradient id="paint159_linear_2_4" x1="289" y1="7" x2="300" y2="7" gradientUnits="userSpaceOnUse">
<stop stop-opacity="0.19"/>
<stop offset="0.979167" stop-opacity="0.5"/>
</linearGradient>
<linearGradient id="paint160_linear_2_4" x1="301" y1="42" x2="312" y2="42" gradientUnits="userSpaceOnUse">
<stop stop-opacity="0.19"/>
<stop offset="0.979167" stop-opacity="0.5"/>
</linearGradient>
<linearGradient id="paint161_linear_2_4" x1="289" y1="49" x2="300" y2="49" gradientUnits="userSpaceOnUse">
<stop stop-opacity="0.19"/>
<stop offset="0.979167" stop-opacity="0.5"/>
</linearGradient>
<clipPath id="clip0_2_4">
<rect width="354" height="86" fill="white"/>
</clipPath>
</defs>
</svg>
