<svg width="73" height="169" viewBox="0 0 73 169" fill="none" xmlns="http://www.w3.org/2000/svg">
<g clip-path="url(#clip0_2843_6675)">
<path d="M72.7999 13.45L97.1599 -0.614286L97.1599 27.5142L72.7999 13.45Z" fill="url(#paint0_linear_2843_6675)" fill-opacity="0.5"/>
<path d="M72.7999 13.45L97.1599 -0.614286L97.1599 27.5142L72.7999 13.45Z" stroke="#303030"/>
<path d="M72.7999 98.7097L97.1599 84.6455L97.1599 112.774L72.7999 98.7097Z" fill="url(#paint1_linear_2843_6675)" fill-opacity="0.5"/>
<path d="M72.7999 98.7097L97.1599 84.6455L97.1599 112.774L72.7999 98.7097Z" stroke="#303030"/>
<path d="M48.4402 27.66L72.8002 13.5958L72.8002 41.7243L48.4402 27.66Z" fill="url(#paint2_linear_2843_6675)" fill-opacity="0.5"/>
<path d="M48.4402 112.92L72.8002 98.8554L72.8002 126.984L48.4402 112.92Z" fill="url(#paint3_linear_2843_6675)" fill-opacity="0.5"/>
<path d="M72.7999 41.87L97.1599 27.8058L97.1599 55.9342L72.7999 41.87Z" fill="url(#paint4_linear_2843_6675)" fill-opacity="0.5"/>
<path d="M72.7999 41.87L97.1599 27.8058L97.1599 55.9342L72.7999 41.87Z" stroke="#303030"/>
<path d="M72.7999 127.13L97.1599 113.066L97.1599 141.194L72.7999 127.13Z" fill="url(#paint5_linear_2843_6675)" fill-opacity="0.5"/>
<path d="M72.7999 127.13L97.1599 113.066L97.1599 141.194L72.7999 127.13Z" stroke="#303030"/>
<path d="M48.4402 56.0801L72.8002 42.0158L72.8002 70.1443L48.4402 56.0801Z" fill="url(#paint6_linear_2843_6675)" fill-opacity="0.5"/>
<path d="M48.4402 141.34L72.8002 127.276L72.8002 155.404L48.4402 141.34Z" fill="url(#paint7_linear_2843_6675)" fill-opacity="0.5"/>
<path d="M48.4402 -0.760006L72.8002 -14.8242L72.8002 13.3042L48.4402 -0.760006Z" fill="url(#paint8_linear_2843_6675)" fill-opacity="0.5"/>
<path d="M72.7999 70.29L97.1599 56.2258L97.1599 84.3543L72.7999 70.29Z" fill="url(#paint9_linear_2843_6675)" fill-opacity="0.5"/>
<path d="M72.7999 70.29L97.1599 56.2258L97.1599 84.3543L72.7999 70.29Z" stroke="#303030"/>
<path d="M48.4402 84.5L72.8002 70.4358L72.8002 98.5642L48.4402 84.5Z" fill="url(#paint10_linear_2843_6675)" fill-opacity="0.5"/>
<path d="M24.0802 13.4501L48.4402 -0.614164L48.4402 27.5143L24.0802 13.4501Z" fill="url(#paint11_linear_2843_6675)" fill-opacity="0.5"/>
<path d="M24.0802 98.7097L48.4402 84.6455L48.4402 112.774L24.0802 98.7097Z" fill="url(#paint12_linear_2843_6675)" fill-opacity="0.5"/>
<path d="M-0.279786 27.66L24.0802 13.5958L24.0802 41.7243L-0.279786 27.66Z" fill="url(#paint13_linear_2843_6675)" fill-opacity="0.5"/>
<path d="M-0.279786 112.92L24.0802 98.8557L24.0802 126.984L-0.279786 112.92Z" fill="url(#paint14_linear_2843_6675)" fill-opacity="0.5"/>
<path d="M24.0802 41.87L48.4402 27.8058L48.4402 55.9342L24.0802 41.87Z" fill="url(#paint15_linear_2843_6675)" fill-opacity="0.5"/>
<path d="M24.0802 127.13L48.4402 113.066L48.4402 141.194L24.0802 127.13Z" fill="url(#paint16_linear_2843_6675)" fill-opacity="0.5"/>
<path d="M-0.279786 56.0801L24.0802 42.0158L24.0802 70.1443L-0.279786 56.0801Z" fill="url(#paint17_linear_2843_6675)" fill-opacity="0.5"/>
<path d="M-0.279786 141.34L24.0802 127.276L24.0802 155.404L-0.279786 141.34Z" fill="url(#paint18_linear_2843_6675)" fill-opacity="0.5"/>
<path d="M-0.279786 -0.759884L24.0802 -14.8241L24.0802 13.3044L-0.279786 -0.759884Z" fill="url(#paint19_linear_2843_6675)" fill-opacity="0.5"/>
<path d="M24.0802 70.29L48.4402 56.2258L48.4402 84.3543L24.0802 70.29Z" fill="url(#paint20_linear_2843_6675)" fill-opacity="0.5"/>
<path d="M-0.279786 84.5L24.0802 70.4358L24.0802 98.5642L-0.279786 84.5Z" fill="url(#paint21_linear_2843_6675)" fill-opacity="0.5"/>
<path d="M-0.279786 169.76L24.0802 155.696L24.0802 183.824L-0.279786 169.76Z" fill="url(#paint22_linear_2843_6675)" fill-opacity="0.5"/>
<path d="M72.8004 155.55L97.1604 141.486L97.1604 169.614L72.8004 155.55Z" fill="url(#paint23_linear_2843_6675)" fill-opacity="0.5"/>
<path d="M72.8004 155.55L97.1604 141.486L97.1604 169.614L72.8004 155.55Z" stroke="#303030"/>
<path d="M48.4404 169.76L72.8004 155.696L72.8004 183.824L48.4404 169.76Z" fill="url(#paint24_linear_2843_6675)" fill-opacity="0.5"/>
<path d="M24.0802 155.55L48.4402 141.486L48.4402 169.614L24.0802 155.55Z" fill="url(#paint25_linear_2843_6675)" fill-opacity="0.5"/>
</g>
<defs>
<linearGradient id="paint0_linear_2843_6675" x1="74.8299" y1="13.45" x2="97.1599" y2="13.45" gradientUnits="userSpaceOnUse">
<stop stop-opacity="0.19"/>
<stop offset="0.979167" stop-opacity="0.5"/>
</linearGradient>
<linearGradient id="paint1_linear_2843_6675" x1="74.8299" y1="98.7097" x2="97.1599" y2="98.7097" gradientUnits="userSpaceOnUse">
<stop stop-opacity="0.19"/>
<stop offset="0.979167" stop-opacity="0.5"/>
</linearGradient>
<linearGradient id="paint2_linear_2843_6675" x1="50.4702" y1="27.66" x2="72.8002" y2="27.66" gradientUnits="userSpaceOnUse">
<stop stop-opacity="0.19"/>
<stop offset="0.979167" stop-opacity="0.5"/>
</linearGradient>
<linearGradient id="paint3_linear_2843_6675" x1="50.4702" y1="112.92" x2="72.8002" y2="112.92" gradientUnits="userSpaceOnUse">
<stop stop-opacity="0.19"/>
<stop offset="0.979167" stop-opacity="0.5"/>
</linearGradient>
<linearGradient id="paint4_linear_2843_6675" x1="74.8299" y1="41.87" x2="97.1599" y2="41.87" gradientUnits="userSpaceOnUse">
<stop stop-opacity="0.19"/>
<stop offset="0.979167" stop-opacity="0.5"/>
</linearGradient>
<linearGradient id="paint5_linear_2843_6675" x1="74.8299" y1="127.13" x2="97.1599" y2="127.13" gradientUnits="userSpaceOnUse">
<stop stop-opacity="0.19"/>
<stop offset="0.979167" stop-opacity="0.5"/>
</linearGradient>
<linearGradient id="paint6_linear_2843_6675" x1="50.4702" y1="56.0801" x2="72.8002" y2="56.0801" gradientUnits="userSpaceOnUse">
<stop stop-opacity="0.19"/>
<stop offset="0.979167" stop-opacity="0.5"/>
</linearGradient>
<linearGradient id="paint7_linear_2843_6675" x1="50.4702" y1="141.34" x2="72.8002" y2="141.34" gradientUnits="userSpaceOnUse">
<stop stop-opacity="0.19"/>
<stop offset="0.979167" stop-opacity="0.5"/>
</linearGradient>
<linearGradient id="paint8_linear_2843_6675" x1="50.4702" y1="-0.760007" x2="72.8002" y2="-0.760007" gradientUnits="userSpaceOnUse">
<stop stop-opacity="0.19"/>
<stop offset="0.979167" stop-opacity="0.5"/>
</linearGradient>
<linearGradient id="paint9_linear_2843_6675" x1="74.8299" y1="70.29" x2="97.1599" y2="70.29" gradientUnits="userSpaceOnUse">
<stop stop-opacity="0.19"/>
<stop offset="0.979167" stop-opacity="0.5"/>
</linearGradient>
<linearGradient id="paint10_linear_2843_6675" x1="50.4702" y1="84.5" x2="72.8002" y2="84.5" gradientUnits="userSpaceOnUse">
<stop stop-opacity="0.19"/>
<stop offset="0.979167" stop-opacity="0.5"/>
</linearGradient>
<linearGradient id="paint11_linear_2843_6675" x1="26.1102" y1="13.4501" x2="48.4402" y2="13.4501" gradientUnits="userSpaceOnUse">
<stop stop-opacity="0.19"/>
<stop offset="0.979167" stop-opacity="0.5"/>
</linearGradient>
<linearGradient id="paint12_linear_2843_6675" x1="26.1102" y1="98.7097" x2="48.4402" y2="98.7097" gradientUnits="userSpaceOnUse">
<stop stop-opacity="0.19"/>
<stop offset="0.979167" stop-opacity="0.5"/>
</linearGradient>
<linearGradient id="paint13_linear_2843_6675" x1="1.75021" y1="27.66" x2="24.0802" y2="27.66" gradientUnits="userSpaceOnUse">
<stop stop-opacity="0.19"/>
<stop offset="0.979167" stop-opacity="0.5"/>
</linearGradient>
<linearGradient id="paint14_linear_2843_6675" x1="1.75021" y1="112.92" x2="24.0802" y2="112.92" gradientUnits="userSpaceOnUse">
<stop stop-opacity="0.19"/>
<stop offset="0.979167" stop-opacity="0.5"/>
</linearGradient>
<linearGradient id="paint15_linear_2843_6675" x1="26.1102" y1="41.87" x2="48.4402" y2="41.87" gradientUnits="userSpaceOnUse">
<stop stop-opacity="0.19"/>
<stop offset="0.979167" stop-opacity="0.5"/>
</linearGradient>
<linearGradient id="paint16_linear_2843_6675" x1="26.1102" y1="127.13" x2="48.4402" y2="127.13" gradientUnits="userSpaceOnUse">
<stop stop-opacity="0.19"/>
<stop offset="0.979167" stop-opacity="0.5"/>
</linearGradient>
<linearGradient id="paint17_linear_2843_6675" x1="1.75021" y1="56.0801" x2="24.0802" y2="56.0801" gradientUnits="userSpaceOnUse">
<stop stop-opacity="0.19"/>
<stop offset="0.979167" stop-opacity="0.5"/>
</linearGradient>
<linearGradient id="paint18_linear_2843_6675" x1="1.75021" y1="141.34" x2="24.0802" y2="141.34" gradientUnits="userSpaceOnUse">
<stop stop-opacity="0.19"/>
<stop offset="0.979167" stop-opacity="0.5"/>
</linearGradient>
<linearGradient id="paint19_linear_2843_6675" x1="1.75021" y1="-0.759885" x2="24.0802" y2="-0.759885" gradientUnits="userSpaceOnUse">
<stop stop-opacity="0.19"/>
<stop offset="0.979167" stop-opacity="0.5"/>
</linearGradient>
<linearGradient id="paint20_linear_2843_6675" x1="26.1102" y1="70.29" x2="48.4402" y2="70.29" gradientUnits="userSpaceOnUse">
<stop stop-opacity="0.19"/>
<stop offset="0.979167" stop-opacity="0.5"/>
</linearGradient>
<linearGradient id="paint21_linear_2843_6675" x1="1.75021" y1="84.5" x2="24.0802" y2="84.5" gradientUnits="userSpaceOnUse">
<stop stop-opacity="0.19"/>
<stop offset="0.979167" stop-opacity="0.5"/>
</linearGradient>
<linearGradient id="paint22_linear_2843_6675" x1="1.75021" y1="169.76" x2="24.0802" y2="169.76" gradientUnits="userSpaceOnUse">
<stop stop-opacity="0.19"/>
<stop offset="0.979167" stop-opacity="0.5"/>
</linearGradient>
<linearGradient id="paint23_linear_2843_6675" x1="74.8304" y1="155.55" x2="97.1604" y2="155.55" gradientUnits="userSpaceOnUse">
<stop stop-opacity="0.19"/>
<stop offset="0.979167" stop-opacity="0.5"/>
</linearGradient>
<linearGradient id="paint24_linear_2843_6675" x1="50.4704" y1="169.76" x2="72.8004" y2="169.76" gradientUnits="userSpaceOnUse">
<stop stop-opacity="0.19"/>
<stop offset="0.979167" stop-opacity="0.5"/>
</linearGradient>
<linearGradient id="paint25_linear_2843_6675" x1="26.1102" y1="155.55" x2="48.4402" y2="155.55" gradientUnits="userSpaceOnUse">
<stop stop-opacity="0.19"/>
<stop offset="0.979167" stop-opacity="0.5"/>
</linearGradient>
<clipPath id="clip0_2843_6675">
<rect width="73" height="169" fill="white"/>
</clipPath>
</defs>
</svg>
